<svg xmlns="http://www.w3.org/2000/svg">

  <symbol id="logo" viewBox="0 0 48 13">
    <path d="M0.992188 0.726562V12H3.00781V8.27344H5.28906C7.57031 8.27344 9.17188 6.75 9.17188 4.5C9.17188 2.25 7.61719 0.726562 5.375 0.726562H0.992188ZM3.00781 2.375H4.84375C6.28906 2.375 7.125 3.14844 7.125 4.5C7.125 5.86719 6.28125 6.64844 4.83594 6.64844H3.00781V2.375Z" fill="white" />
    <path d="M11.4688 2.46875C12.0625 2.46875 12.5312 1.99219 12.5312 1.41406C12.5312 0.828125 12.0625 0.359375 11.4688 0.359375C10.875 0.359375 10.3984 0.828125 10.3984 1.41406C10.3984 1.99219 10.875 2.46875 11.4688 2.46875ZM10.5 12H12.4453V3.71875H10.5V12Z" fill="white" />
    <path d="M16.1016 7.17188H16.0781V0.726562H14.1328V12H16.0781V9.125L16.7344 8.46094L19.3516 12H21.6016L18.1484 7.28125L21.4609 3.71875H19.2188L16.1016 7.17188Z" fill="white" />
    <path d="M24.7812 12.1328C25.8438 12.1328 26.8828 11.5781 27.3594 10.6797H27.3984V12H29.2734V6.29688C29.2734 4.63281 27.9375 3.54688 25.8828 3.54688C23.7734 3.54688 22.4531 4.65625 22.3672 6.20312H24.1719C24.2969 5.51562 24.8828 5.07031 25.8047 5.07031C26.7656 5.07031 27.3516 5.57031 27.3516 6.4375V7.03125L25.1641 7.15625C23.1484 7.28125 22.0156 8.16406 22.0156 9.63281C22.0156 11.125 23.1797 12.1328 24.7812 12.1328ZM25.3672 10.6641C24.5234 10.6641 23.9609 10.2344 23.9609 9.55469C23.9609 8.89844 24.5 8.47656 25.4375 8.41406L27.3516 8.29688V8.92969C27.3516 9.92969 26.4688 10.6641 25.3672 10.6641Z" fill="white" />
    <path d="M33.9375 12.1328C35.1484 12.1328 36.1016 11.5156 36.5547 10.5859H36.5859V12H38.4922V0.726562H36.5469V5.10938H36.5C36.0625 4.19531 35.125 3.57812 33.9375 3.57812C31.8516 3.57812 30.5 5.23438 30.5 7.85156C30.5 10.4844 31.8516 12.1328 33.9375 12.1328ZM34.5234 5.17969C35.75 5.17969 36.5547 6.23438 36.5547 7.85938C36.5547 9.5 35.75 10.5391 34.5234 10.5391C33.2656 10.5391 32.4922 9.50781 32.4922 7.85938C32.4922 6.21875 33.2734 5.17969 34.5234 5.17969Z" fill="white" />
    <path d="M47.4688 3.71875H45.5234V8.50781C45.5234 9.71094 44.8281 10.5078 43.7031 10.5078C42.6094 10.5078 42.0312 9.86719 42.0312 8.67969V3.71875H40.0859V9.07031C40.0859 10.9844 41.2266 12.1484 43.0234 12.1484C44.2812 12.1484 45.1172 11.5703 45.5547 10.5625H45.5938V12H47.4688V3.71875Z" fill="white" />
  </symbol>

  <symbol id="search" viewBox="0 0 16 16">
    <path d="M13.2125 12.3516L9.15469 8.29375C9.78438 7.47969 10.125 6.48438 10.125 5.4375C10.125 4.18438 9.63594 3.00937 8.75156 2.12344C7.86719 1.2375 6.68906 0.75 5.4375 0.75C4.18594 0.75 3.00781 1.23906 2.12344 2.12344C1.2375 3.00781 0.75 4.18438 0.75 5.4375C0.75 6.68906 1.23906 7.86719 2.12344 8.75156C3.00781 9.6375 4.18438 10.125 5.4375 10.125C6.48438 10.125 7.47813 9.78438 8.29219 9.15625L12.35 13.2125C12.3619 13.2244 12.376 13.2338 12.3916 13.2403C12.4071 13.2467 12.4238 13.2501 12.4406 13.2501C12.4575 13.2501 12.4741 13.2467 12.4897 13.2403C12.5052 13.2338 12.5194 13.2244 12.5312 13.2125L13.2125 12.5328C13.2244 12.5209 13.2338 12.5068 13.2403 12.4912C13.2467 12.4757 13.2501 12.459 13.2501 12.4422C13.2501 12.4254 13.2467 12.4087 13.2403 12.3931C13.2338 12.3776 13.2244 12.3635 13.2125 12.3516ZM7.9125 7.9125C7.25 8.57344 6.37187 8.9375 5.4375 8.9375C4.50313 8.9375 3.625 8.57344 2.9625 7.9125C2.30156 7.25 1.9375 6.37187 1.9375 5.4375C1.9375 4.50313 2.30156 3.62344 2.9625 2.9625C3.625 2.30156 4.50313 1.9375 5.4375 1.9375C6.37187 1.9375 7.25156 2.3 7.9125 2.9625C8.57344 3.625 8.9375 4.50313 8.9375 5.4375C8.9375 6.37187 8.57344 7.25156 7.9125 7.9125Z" fill="#FA8C16" />
  </symbol>

  <symbol id="like" viewBox="0 0 20 20">
    <path d="M18.7633 10.5094C19.157 9.98909 19.375 9.35159 19.375 8.6883C19.375 7.63596 18.7867 6.63987 17.8398 6.0844C17.5961 5.94142 17.3185 5.86617 17.0359 5.86643H11.4156L11.5563 2.98596C11.5891 2.28987 11.343 1.62893 10.8648 1.12502C10.6302 0.876652 10.3471 0.679038 10.0331 0.544395C9.71905 0.409752 9.38074 0.34094 9.03906 0.342211C7.82031 0.342211 6.74219 1.16252 6.41875 2.33674L4.40547 9.62581H1.375C0.960156 9.62581 0.625 9.96096 0.625 10.3758V18.9071C0.625 19.3219 0.960156 19.6571 1.375 19.6571H15.468C15.6836 19.6571 15.8945 19.6149 16.0891 19.5305C17.2047 19.0547 17.9242 17.9649 17.9242 16.7555C17.9242 16.4602 17.882 16.1696 17.7977 15.8883C18.1914 15.368 18.4094 14.7305 18.4094 14.0672C18.4094 13.7719 18.3672 13.4813 18.2828 13.2C18.6766 12.6797 18.8945 12.0422 18.8945 11.3789C18.8898 11.0836 18.8477 10.7906 18.7633 10.5094ZM2.3125 17.9696V11.3133H4.21094V17.9696H2.3125ZM17.2281 9.69612L16.7148 10.1414L17.0406 10.7367C17.148 10.9328 17.2036 11.153 17.2023 11.3766C17.2023 11.7633 17.0336 12.1313 16.743 12.3844L16.2297 12.8297L16.5555 13.425C16.6628 13.6211 16.7185 13.8413 16.7172 14.0649C16.7172 14.4516 16.5484 14.8196 16.2578 15.0727L15.7445 15.518L16.0703 16.1133C16.1776 16.3094 16.2333 16.5296 16.232 16.7531C16.232 17.2781 15.9227 17.7516 15.4445 17.9672H5.71094V11.2383L8.04297 2.78909C8.1031 2.57252 8.23219 2.38147 8.41066 2.24486C8.58914 2.10825 8.80728 2.03354 9.03203 2.03205C9.21016 2.03205 9.38594 2.08362 9.52656 2.18909C9.75859 2.36252 9.88281 2.62502 9.86875 2.90393L9.64375 7.55393H17.0125C17.4297 7.8094 17.6875 8.24065 17.6875 8.6883C17.6875 9.07502 17.5188 9.44065 17.2281 9.69612Z" />
  </symbol>

  <symbol id="comment" viewBox="0 0 22 22">
    <path d="M9.87519 11C9.87519 11.2984 9.99372 11.5845 10.2047 11.7955C10.4157 12.0065 10.7018 12.125 11.0002 12.125C11.2986 12.125 11.5847 12.0065 11.7957 11.7955C12.0067 11.5845 12.1252 11.2984 12.1252 11C12.1252 10.7016 12.0067 10.4155 11.7957 10.2045C11.5847 9.99353 11.2986 9.875 11.0002 9.875C10.7018 9.875 10.4157 9.99353 10.2047 10.2045C9.99372 10.4155 9.87519 10.7016 9.87519 11ZM14.5627 11C14.5627 11.2984 14.6812 11.5845 14.8922 11.7955C15.1032 12.0065 15.3893 12.125 15.6877 12.125C15.9861 12.125 16.2722 12.0065 16.4832 11.7955C16.6942 11.5845 16.8127 11.2984 16.8127 11C16.8127 10.7016 16.6942 10.4155 16.4832 10.2045C16.2722 9.99353 15.9861 9.875 15.6877 9.875C15.3893 9.875 15.1032 9.99353 14.8922 10.2045C14.6812 10.4155 14.5627 10.7016 14.5627 11ZM5.18769 11C5.18769 11.2984 5.30622 11.5845 5.5172 11.7955C5.72818 12.0065 6.01433 12.125 6.31269 12.125C6.61106 12.125 6.89721 12.0065 7.10819 11.7955C7.31917 11.5845 7.43769 11.2984 7.43769 11C7.43769 10.7016 7.31917 10.4155 7.10819 10.2045C6.89721 9.99353 6.61106 9.875 6.31269 9.875C6.01433 9.875 5.72818 9.99353 5.5172 10.2045C5.30622 10.4155 5.18769 10.7016 5.18769 11ZM20.6846 6.93125C20.1549 5.67266 19.3955 4.54297 18.4275 3.57266C17.4663 2.60796 16.3253 1.84114 15.0689 1.31563C13.7799 0.774219 12.4111 0.5 11.0002 0.5H10.9533C9.53301 0.507031 8.15723 0.788281 6.86348 1.34141C5.61791 1.87232 4.48753 2.64049 3.53535 3.60312C2.57676 4.57109 1.82441 5.69609 1.3041 6.95C0.765038 8.24844 0.493163 9.62891 0.500194 11.0492C0.508147 12.6769 0.893222 14.2806 1.62519 15.7344V19.2969C1.62519 19.5828 1.73878 19.857 1.94097 20.0592C2.14316 20.2614 2.41738 20.375 2.70332 20.375H6.26816C7.72198 21.107 9.32565 21.492 10.9533 21.5H11.0025C12.4064 21.5 13.7682 21.2281 15.0502 20.6961C16.3002 20.1768 17.437 19.419 18.3971 18.4648C19.365 17.5063 20.1268 16.3859 20.6588 15.1367C21.2119 13.843 21.4932 12.4672 21.5002 11.0469C21.5072 9.61953 21.2307 8.23438 20.6846 6.93125ZM17.1432 17.1969C15.5002 18.8234 13.3205 19.7188 11.0002 19.7188H10.9604C9.54707 19.7117 8.14316 19.3602 6.90332 18.6992L6.70644 18.5938H3.40644V15.2938L3.30098 15.0969C2.64004 13.857 2.28848 12.4531 2.28144 11.0398C2.27207 8.70312 3.16504 6.50937 4.80332 4.85703C6.43926 3.20469 8.62598 2.29062 10.9627 2.28125H11.0025C12.1744 2.28125 13.3111 2.50859 14.3822 2.95859C15.4275 3.39687 16.365 4.02734 17.1713 4.83359C17.9752 5.6375 18.608 6.57734 19.0463 7.62266C19.501 8.70547 19.7283 9.85391 19.7236 11.0398C19.7096 13.3742 18.7932 15.5609 17.1432 17.1969Z" />
  </symbol>

  <symbol id="save" viewBox="0 0 20 20">
    <path d="M18.9367 4.87422L15.1258 1.06328C14.95 0.8875 14.7344 0.758594 14.5 0.688281V0.625H1.375C0.960156 0.625 0.625 0.960156 0.625 1.375V18.625C0.625 19.0398 0.960156 19.375 1.375 19.375H18.625C19.0398 19.375 19.375 19.0398 19.375 18.625V5.93359C19.375 5.53516 19.218 5.15547 18.9367 4.87422ZM7 2.3125H13V4.75H7V2.3125ZM17.6875 17.6875H2.3125V2.3125H5.5V5.5C5.5 5.91484 5.83516 6.25 6.25 6.25H13.75C14.1648 6.25 14.5 5.91484 14.5 5.5V2.82344L17.6875 6.01094V17.6875ZM10 8.35938C8.13672 8.35938 6.625 9.87109 6.625 11.7344C6.625 13.5977 8.13672 15.1094 10 15.1094C11.8633 15.1094 13.375 13.5977 13.375 11.7344C13.375 9.87109 11.8633 8.35938 10 8.35938ZM10 13.6094C8.96406 13.6094 8.125 12.7703 8.125 11.7344C8.125 10.6984 8.96406 9.85938 10 9.85938C11.0359 9.85938 11.875 10.6984 11.875 11.7344C11.875 12.7703 11.0359 13.6094 10 13.6094Z" />
  </symbol>

  <symbol id="share" viewBox="0 0 20 20">
    <path d="M14.625 13.5625C13.957 13.5625 13.3406 13.7969 12.8578 14.1883L8.00156 10.675C8.08288 10.2287 8.08288 9.77133 8.00156 9.325L12.8578 5.81172C13.3406 6.20312 13.957 6.4375 14.625 6.4375C16.1766 6.4375 17.4375 5.17656 17.4375 3.625C17.4375 2.07344 16.1766 0.8125 14.625 0.8125C13.0734 0.8125 11.8125 2.07344 11.8125 3.625C11.8125 3.89687 11.85 4.15703 11.9227 4.40547L7.31016 7.74531C6.62578 6.83828 5.53828 6.25 4.3125 6.25C2.24062 6.25 0.5625 7.92812 0.5625 10C0.5625 12.0719 2.24062 13.75 4.3125 13.75C5.53828 13.75 6.62578 13.1617 7.31016 12.2547L11.9227 15.5945C11.85 15.843 11.8125 16.1055 11.8125 16.375C11.8125 17.9266 13.0734 19.1875 14.625 19.1875C16.1766 19.1875 17.4375 17.9266 17.4375 16.375C17.4375 14.8234 16.1766 13.5625 14.625 13.5625ZM14.625 2.40625C15.2977 2.40625 15.8438 2.95234 15.8438 3.625C15.8438 4.29766 15.2977 4.84375 14.625 4.84375C13.9523 4.84375 13.4062 4.29766 13.4062 3.625C13.4062 2.95234 13.9523 2.40625 14.625 2.40625ZM4.3125 12.0625C3.17578 12.0625 2.25 11.1367 2.25 10C2.25 8.86328 3.17578 7.9375 4.3125 7.9375C5.44922 7.9375 6.375 8.86328 6.375 10C6.375 11.1367 5.44922 12.0625 4.3125 12.0625ZM14.625 17.5938C13.9523 17.5938 13.4062 17.0477 13.4062 16.375C13.4062 15.7023 13.9523 15.1562 14.625 15.1562C15.2977 15.1562 15.8438 15.7023 15.8438 16.375C15.8438 17.0477 15.2977 17.5938 14.625 17.5938Z" />
  </symbol>

  <symbol id="avatar" viewBox="0 0 34 34">
    <path d="M27.8286 24.8625C27.2391 23.4662 26.3837 22.1978 25.3099 21.1281C24.2394 20.0553 22.9712 19.2 21.5755 18.6094C21.563 18.6031 21.5505 18.6 21.538 18.5938C23.4849 17.1875 24.7505 14.8969 24.7505 12.3125C24.7505 8.03125 21.2818 4.5625 17.0005 4.5625C12.7193 4.5625 9.25052 8.03125 9.25052 12.3125C9.25052 14.8969 10.5161 17.1875 12.463 18.5969C12.4505 18.6031 12.438 18.6062 12.4255 18.6125C11.0255 19.2031 9.76927 20.05 8.69115 21.1313C7.61836 22.2018 6.76303 23.4699 6.1724 24.8656C5.59215 26.232 5.27921 27.697 5.25052 29.1812C5.24969 29.2146 5.25554 29.2478 5.26773 29.2788C5.27992 29.3099 5.2982 29.3382 5.3215 29.3621C5.3448 29.386 5.37264 29.4049 5.40338 29.4179C5.43413 29.4308 5.46716 29.4375 5.50052 29.4375H7.37552C7.51302 29.4375 7.6224 29.3281 7.62552 29.1938C7.68802 26.7812 8.65677 24.5219 10.3693 22.8094C12.1411 21.0375 14.4943 20.0625 17.0005 20.0625C19.5068 20.0625 21.8599 21.0375 23.6318 22.8094C25.3443 24.5219 26.313 26.7812 26.3755 29.1938C26.3786 29.3313 26.488 29.4375 26.6255 29.4375H28.5005C28.5339 29.4375 28.5669 29.4308 28.5977 29.4179C28.6284 29.4049 28.6562 29.386 28.6795 29.3621C28.7028 29.3382 28.7211 29.3099 28.7333 29.2788C28.7455 29.2478 28.7514 29.2146 28.7505 29.1812C28.7193 27.6875 28.4099 26.2344 27.8286 24.8625ZM17.0005 17.6875C15.5661 17.6875 14.2161 17.1281 13.2005 16.1125C12.1849 15.0969 11.6255 13.7469 11.6255 12.3125C11.6255 10.8781 12.1849 9.52812 13.2005 8.5125C14.2161 7.49687 15.5661 6.9375 17.0005 6.9375C18.4349 6.9375 19.7849 7.49687 20.8005 8.5125C21.8161 9.52812 22.3755 10.8781 22.3755 12.3125C22.3755 13.7469 21.8161 15.0969 20.8005 16.1125C19.7849 17.1281 18.4349 17.6875 17.0005 17.6875Z" fill="white" />
  </symbol>

  <symbol id="exit-btn" viewBox="0 0 22 22">
    <path d="M15.5371 1.92734C15.5084 1.91289 15.4765 1.90604 15.4444 1.90747C15.4123 1.90889 15.3811 1.91854 15.3538 1.93548C15.3265 1.95242 15.3041 1.97608 15.2885 2.00421C15.273 2.03233 15.265 2.06397 15.2652 2.09609V3.60078C15.2652 3.72969 15.3332 3.84922 15.441 3.91953C15.9695 4.2522 16.4586 4.64376 16.8988 5.08672C17.6652 5.85547 18.2676 6.74844 18.6871 7.74219C19.121 8.77093 19.3434 9.87648 19.341 10.993C19.341 12.1203 19.1207 13.2148 18.6871 14.2438C18.268 15.2361 17.6608 16.1378 16.8988 16.8992C16.1394 17.6631 15.2382 18.2713 14.2457 18.6898C13.2191 19.1258 12.1246 19.3461 10.9996 19.3461C9.8746 19.3461 8.78007 19.1258 7.7535 18.6898C6.76102 18.2713 5.85978 17.6631 5.10038 16.8992C4.33843 16.1378 3.73115 15.2361 3.3121 14.2438C2.87823 13.215 2.65584 12.1095 2.65819 10.993C2.65819 9.86563 2.8785 8.77109 3.3121 7.74219C3.73163 6.74844 4.33397 5.85547 5.10038 5.08672C5.54569 4.64141 6.03319 4.25234 6.55819 3.91953C6.66835 3.85156 6.73397 3.72969 6.73397 3.60078V2.09375C6.73397 1.95312 6.58632 1.86406 6.4621 1.925C3.18319 3.575 0.921473 6.95234 0.874598 10.8664C0.808973 16.4633 5.38632 21.1133 10.9808 21.125C16.5824 21.1367 21.1246 16.5945 21.1246 10.9906C21.1246 7.025 18.8512 3.59141 15.5371 1.92734ZM10.2496 12.125H11.7496C11.8527 12.125 11.9371 12.0406 11.9371 11.9375V1.0625C11.9371 0.959375 11.8527 0.875 11.7496 0.875H10.2496C10.1465 0.875 10.0621 0.959375 10.0621 1.0625V11.9375C10.0621 12.0406 10.1465 12.125 10.2496 12.125Z" fill="black" />
  </symbol>

  <symbol id="new-post" viewBox="0 0 12 14">
    <path d="M11.0328 6.33147C10.7295 5.64875 10.2885 5.03597 9.7375 4.53147L9.28281 4.11428C9.26737 4.10051 9.24879 4.09073 9.22869 4.08581C9.2086 4.08089 9.1876 4.08099 9.16754 4.08608C9.14749 4.09117 9.12899 4.1011 9.11367 4.11501C9.09835 4.12892 9.08668 4.14638 9.07969 4.16585L8.87656 4.74866C8.75 5.11428 8.51719 5.48772 8.1875 5.85491C8.16563 5.87835 8.14063 5.8846 8.12344 5.88616C8.10625 5.88772 8.07969 5.8846 8.05625 5.86272C8.03437 5.84397 8.02344 5.81585 8.025 5.78772C8.08281 4.8471 7.80156 3.78616 7.18594 2.63147C6.67656 1.6721 5.96875 0.92366 5.08437 0.401785L4.43906 0.0220976C4.35469 -0.0279024 4.24688 0.0377225 4.25156 0.13616L4.28594 0.88616C4.30937 1.39866 4.25 1.85179 4.10938 2.22835C3.9375 2.68929 3.69062 3.11741 3.375 3.50179C3.15535 3.76891 2.90639 4.01053 2.63281 4.2221C1.97391 4.72861 1.43815 5.37762 1.06562 6.12054C0.694022 6.86993 0.500453 7.695 0.5 8.53147C0.5 9.26897 0.645312 9.98304 0.932812 10.6565C1.21042 11.3049 1.61103 11.8933 2.1125 12.3893C2.61875 12.8893 3.20625 13.283 3.86094 13.5565C4.53906 13.8408 5.25781 13.9846 6 13.9846C6.74219 13.9846 7.46094 13.8408 8.13906 13.558C8.79214 13.2862 9.38601 12.8898 9.8875 12.3908C10.3938 11.8908 10.7906 11.3065 11.0672 10.658C11.3543 9.98644 11.5015 9.26341 11.5 8.53303C11.5 7.77053 11.3438 7.02991 11.0328 6.33147ZM9.14062 11.633C8.30156 12.4643 7.1875 12.9205 6 12.9205C4.8125 12.9205 3.69844 12.4643 2.85938 11.633C2.02344 10.8033 1.5625 9.70335 1.5625 8.53303C1.5625 7.85335 1.71563 7.20179 2.01719 6.59554C2.31094 6.00335 2.74844 5.47366 3.27969 5.06585C3.6185 4.80678 3.9258 4.50891 4.19531 4.17835C4.58594 3.70179 4.89219 3.17053 5.10469 2.60022C5.19185 2.36497 5.25519 2.12156 5.29375 1.87366C5.67031 2.22054 5.98594 2.63928 6.25 3.12991C6.77187 4.10803 7.0125 4.97835 6.96562 5.71897C6.95443 5.8934 6.98291 6.06811 7.04895 6.22994C7.11498 6.39178 7.21684 6.53654 7.34688 6.65335C7.45956 6.75514 7.59135 6.83352 7.73458 6.88395C7.87782 6.93438 8.02965 6.95584 8.18125 6.9471C8.48906 6.93147 8.77187 6.79554 8.97812 6.56585C9.18594 6.33304 9.36563 6.09554 9.51562 5.85335C9.73438 6.13304 9.91719 6.43772 10.0625 6.76585C10.3109 7.32522 10.4375 7.92053 10.4375 8.53303C10.4375 9.70335 9.97656 10.8049 9.14062 11.633Z" fill="white" />
  </symbol>

  <symbol id="video" viewBox="0 0 14 12">
    <path d="M13.5 0.5H0.5C0.223437 0.5 0 0.723437 0 1V11C0 11.2766 0.223437 11.5 0.5 11.5H13.5C13.7766 11.5 14 11.2766 14 11V1C14 0.723437 13.7766 0.5 13.5 0.5ZM12.875 10.375H1.125V9.75156L3.28906 7.18437L5.63438 9.96562L9.28281 5.64062L12.875 9.9V10.375ZM12.875 8.34688L9.37813 4.2C9.32812 4.14062 9.2375 4.14062 9.1875 4.2L5.63438 8.4125L3.38438 5.74531C3.33438 5.68594 3.24375 5.68594 3.19375 5.74531L1.125 8.19844V1.625H12.875V8.34688ZM3.75 5.125C3.93057 5.125 4.10937 5.08943 4.27619 5.02033C4.44301 4.95123 4.59459 4.84995 4.72227 4.72227C4.84995 4.59459 4.95123 4.44301 5.02033 4.27619C5.08943 4.10937 5.125 3.93057 5.125 3.75C5.125 3.56943 5.08943 3.39063 5.02033 3.22381C4.95123 3.05699 4.84995 2.90541 4.72227 2.77773C4.59459 2.65005 4.44301 2.54877 4.27619 2.47967C4.10937 2.41057 3.93057 2.375 3.75 2.375C3.38533 2.375 3.03559 2.51987 2.77773 2.77773C2.51987 3.03559 2.375 3.38533 2.375 3.75C2.375 4.11467 2.51987 4.46441 2.77773 4.72227C3.03559 4.98013 3.38533 5.125 3.75 5.125ZM3.75 3.3125C3.99219 3.3125 4.1875 3.50781 4.1875 3.75C4.1875 3.99219 3.99219 4.1875 3.75 4.1875C3.50781 4.1875 3.3125 3.99219 3.3125 3.75C3.3125 3.50781 3.50781 3.3125 3.75 3.3125Z" fill="#FFC53D" />
  </symbol>

  <symbol id="photo" viewBox="0 0 14 12">
    <path d="M13.25 2.72344L11.25 3.875V1.5C11.25 0.948438 10.8016 0.5 10.25 0.5H1C0.448438 0.5 0 0.948438 0 1.5V10.5C0 11.0516 0.448438 11.5 1 11.5H10.25C10.8016 11.5 11.25 11.0516 11.25 10.5V8.125L13.25 9.27656C13.5828 9.46875 14 9.22812 14 8.84531V3.15625C14 2.77187 13.5828 2.53125 13.25 2.72344ZM10.125 10.375H1.125V1.625H10.125V10.375ZM12.875 7.76562L11.25 6.83125V5.17031L12.875 4.23438V7.76562ZM2.25 3.625H4C4.06875 3.625 4.125 3.56875 4.125 3.5V2.75C4.125 2.68125 4.06875 2.625 4 2.625H2.25C2.18125 2.625 2.125 2.68125 2.125 2.75V3.5C2.125 3.56875 2.18125 3.625 2.25 3.625Z" fill="#FFC53D" />
  </symbol>

</svg>